<svg width="350" height="400" viewBox="0 0 350 400" fill="none" xmlns="http://www.w3.org/2000/svg">
<g clip-path="url(#clip0_618_7)">
<rect width="350" height="400" fill="#0A3F76"/>
<rect width="350" height="400" fill="#0A3F76"/>
<path d="M287.942 105.121C272.339 120.723 258.053 136.635 242.063 151.872C234.201 159.379 225.901 166.297 216.726 172.101C201.678 181.622 185.234 188.409 168.461 194.426C157.983 198.179 146.91 199.544 136.062 201.78C128.667 203.308 121.287 204.813 114.406 208.113C103.299 213.447 93.0994 219.968 84.8318 229.103C77.874 236.788 72.0689 245.296 66.351 253.861C64.43 256.738 62.7744 259.782 61 262.751L61.4121 263.092C64.7862 260.362 68.4817 258.14 72.24 256.021C81.3214 250.902 90.9652 247.019 100.668 243.156C119.396 235.704 139.342 231.6 159.555 231.042C166.352 230.83 173.145 230.465 179.855 229.206C190.596 227.192 201.106 224.285 211.591 221.309C220.858 218.678 229.967 215.662 238.581 211.28C245.175 207.929 288.99 182.584 288.99 182.584V104.097C288.766 104.305 288.141 104.923 287.942 105.121Z" fill="#F0F0F0"/>
<path d="M232.838 91.3446C225.678 95.4635 218.518 99.6301 211.619 104.148C198.912 112.451 186.027 120.48 174.127 129.933C166.016 136.383 159.247 143.723 154.567 152.913C150.533 160.847 146.138 168.61 142.181 176.572C139.268 182.438 136.554 188.409 134.203 194.528C133.819 195.528 133.872 195.931 135.063 195.709C135.639 195.627 136.215 195.559 136.788 195.46C145.031 194.02 153.107 191.825 161.287 190.109C180.62 186.055 197.683 177.5 212.905 165.331C225.922 154.926 235.804 141.785 245.308 128.476C251.518 119.771 257.596 110.963 264.005 102.391C270.795 93.3102 277.722 84.2637 286.15 76.5583C289.087 73.8761 288.983 68.2762 288.983 68.2762V42C286.904 42.3969 284.849 42.9073 282.828 43.5288C277.805 44.73 275.842 45.3238 272.273 46.1223C269.992 46.6307 268.72 47.9309 267.732 49.8214C264.896 55.1654 261.85 60.4001 258.651 65.5428C252.067 76.084 243.872 84.9871 232.838 91.3446Z" fill="#F0F0F0"/>
<path d="M231.232 231.41C220.858 236.416 210.215 240.907 200.215 246.627C186.132 254.677 175.849 265.928 170.085 280.994C165.643 292.596 163.327 304.724 160.822 316.801C158.776 326.67 156.662 336.512 151.643 345.466C149.331 349.592 146.98 353.697 144.657 357.812L144.867 358C145.126 357.788 145.391 357.58 145.642 357.362C151.092 352.575 156.217 347.445 160.983 342.006C172.062 329.41 181.783 315.791 192.038 302.574C201.294 290.631 212.625 281.195 226.782 275.128C236.677 270.886 246.618 266.743 256.635 262.781C266.436 258.905 289 250.496 289 250.496V203.742C288.591 203.926 283.813 206.25 283.558 206.373C266.104 214.713 248.64 223.012 231.232 231.41Z" fill="#F0F0F0"/>
<path d="M78.6425 141.372C80.616 139.137 82.5371 136.85 84.6328 134.728C92.7013 126.565 102.296 120.556 112.88 116.007C118.081 113.731 123.574 112.152 129.209 111.315C137.221 110.171 145.332 110.349 153.379 109.653C160.152 109.062 166.921 108.438 173.585 107.104C181.842 105.465 189.933 103.111 197.763 100.07C204.703 97.3678 211.783 94.9756 217.795 90.3381C231.333 79.889 242.852 67.8429 250.198 52.3741C250.428 51.8929 251.061 51.3742 250.635 50.8624C250.208 50.3505 249.653 50.917 249.185 51.0535C236.384 54.7253 223.837 54.3431 211.626 48.7807C210.624 48.3235 210.229 48.7807 209.653 49.4632C205.29 54.9505 200.662 60.274 194.983 64.4407C177.368 77.3501 157.93 86.7276 136.575 92.1262C128.637 94.1424 121.068 97.3496 114.137 101.633C107.074 105.971 101.213 111.612 95.4956 117.454C87.5039 125.644 80.9653 134.857 74.6921 144.911C76.1349 143.873 77.4594 142.686 78.6425 141.372Z" fill="#F0F0F0"/>
<path d="M159.38 238.341C158.57 237.972 158.007 238.228 157.452 238.29C153.522 238.73 149.6 239.228 145.667 239.631C138.681 240.344 131.696 241.361 124.745 242.361C123.431 242.552 122.694 243.043 122.188 244.374C120.648 248.418 119.006 252.435 117.186 256.366C110.393 271.039 106.987 286.396 107.501 302.527C107.773 310.949 107.441 319.357 106.048 327.683C105.059 333.614 103.833 339.508 102.712 345.428C102.764 345.462 102.817 345.497 102.866 345.534C103.023 345.237 103.197 344.947 103.334 344.643C106.636 337.248 110.505 330.106 114.905 323.278C121.755 312.525 126.697 301.039 129.17 288.539C130.281 282.918 131.483 277.233 134.249 272.118C140.078 261.324 147.124 251.329 155.646 242.368C156.883 241.054 158.095 239.726 159.38 238.341Z" fill="#F0F0F0"/>
</g>
<defs>
<clipPath id="clip0_618_7">
<rect width="350" height="400" fill="white"/>
</clipPath>
</defs>
</svg>
