<svg width="350" height="400" viewBox="0 0 350 400" fill="none" xmlns="http://www.w3.org/2000/svg">
<g clip-path="url(#clip0_618_2)">
<rect width="350" height="400" fill="#F0F0F0"/>
<path d="M135.532 335L133.348 318.2L133.236 318.088L127.664 334.44H125.592L125.116 333.964L119.32 318.144L119.208 318.256L117.388 335H115.82L117.444 320.3C117.537 319.46 117.593 318.657 117.612 317.892C117.631 317.108 117.621 316.539 117.584 316.184L117.556 315.68L117.836 315.4H121.532L127.216 330.856L132.508 315.4H136.176L138.668 335H135.532ZM141.403 328.364C141.403 326.311 142.047 324.649 143.335 323.38C144.642 322.111 146.341 321.476 148.431 321.476C150.541 321.476 152.239 322.111 153.527 323.38C154.834 324.649 155.487 326.311 155.487 328.364C155.487 330.399 154.834 332.051 153.527 333.32C152.239 334.589 150.541 335.224 148.431 335.224C146.341 335.224 144.642 334.589 143.335 333.32C142.047 332.051 141.403 330.399 141.403 328.364ZM145.687 324.108C144.997 325.135 144.651 326.553 144.651 328.364C144.651 330.175 144.997 331.593 145.687 332.62C146.378 333.628 147.293 334.132 148.431 334.132C149.589 334.132 150.503 333.628 151.175 332.62C151.866 331.593 152.211 330.175 152.211 328.364C152.211 326.535 151.866 325.116 151.175 324.108C150.503 323.081 149.589 322.568 148.431 322.568C147.293 322.568 146.378 323.081 145.687 324.108ZM162.224 342H159.284V329.456C159.284 327.888 159.237 326.479 159.144 325.228C159.05 323.977 158.957 323.128 158.864 322.68L158.724 321.98L159.004 321.7C159.526 321.7 160.03 321.681 160.516 321.644C161.02 321.588 161.384 321.541 161.608 321.504L161.944 321.448L162.224 321.7L162.112 323.016L162.224 323.128C162.354 322.997 162.532 322.848 162.756 322.68C162.98 322.493 163.474 322.251 164.24 321.952C165.005 321.635 165.798 321.476 166.62 321.476C168.337 321.476 169.728 322.073 170.792 323.268C171.874 324.463 172.416 326.096 172.416 328.168C172.416 330.333 171.809 332.051 170.596 333.32C169.382 334.589 167.73 335.224 165.64 335.224C164.258 335.224 163.12 334.963 162.224 334.44V342ZM169.168 328.588C169.168 326.796 168.813 325.452 168.104 324.556C167.394 323.641 166.442 323.184 165.248 323.184C164.706 323.184 164.184 323.277 163.68 323.464C163.176 323.632 162.802 323.8 162.56 323.968L162.224 324.248V331.836C162.224 332.527 162.513 333.087 163.092 333.516C163.67 333.927 164.389 334.132 165.248 334.132C166.442 334.132 167.394 333.656 168.104 332.704C168.813 331.733 169.168 330.361 169.168 328.588ZM187.269 332.2L187.801 332.732C187.763 332.807 187.698 332.9 187.605 333.012C187.53 333.124 187.325 333.32 186.989 333.6C186.671 333.88 186.317 334.132 185.925 334.356C185.551 334.58 185.029 334.785 184.357 334.972C183.685 335.14 182.966 335.224 182.201 335.224C180.073 335.224 178.365 334.599 177.077 333.348C175.807 332.079 175.173 330.408 175.173 328.336C175.173 326.264 175.807 324.603 177.077 323.352C178.365 322.101 180.147 321.476 182.425 321.476C184.067 321.476 185.355 321.803 186.289 322.456C187.222 323.109 187.689 324.005 187.689 325.144C187.689 325.368 187.67 325.592 187.633 325.816C187.595 326.021 187.558 326.171 187.521 326.264L187.437 326.432C186.914 326.619 186.149 326.712 185.141 326.712L184.889 326.432C185.019 326.04 185.085 325.583 185.085 325.06C185.085 324.239 184.842 323.623 184.357 323.212C183.89 322.783 183.227 322.568 182.369 322.568C181.118 322.568 180.147 323.063 179.457 324.052C178.766 325.023 178.421 326.32 178.421 327.944C178.421 329.829 178.822 331.248 179.625 332.2C180.446 333.152 181.622 333.628 183.153 333.628C183.937 333.628 184.674 333.516 185.365 333.292C186.055 333.049 186.55 332.807 186.849 332.564L187.269 332.2ZM191.44 335V326.6C191.44 325.648 191.403 324.789 191.328 324.024C191.272 323.24 191.207 322.699 191.132 322.4L191.02 321.98L191.272 321.7H194.38V327.44L195.752 327.3L196.452 326.488C197.236 325.573 197.899 324.743 198.44 323.996C198.981 323.231 199.327 322.699 199.476 322.4L199.7 321.924L199.98 321.7H202.416L197.908 327.132L199.364 329.596C200.036 330.567 200.699 331.481 201.352 332.34C202.024 333.18 202.519 333.777 202.836 334.132L203.34 334.664V335C202.799 335 202.267 335.019 201.744 335.056C201.24 335.093 200.876 335.131 200.652 335.168L200.288 335.196L195.528 328.532H194.38V335H191.44ZM211.716 321.476C215.226 321.476 216.98 322.783 216.98 325.396V332.536C216.98 333.357 217.316 333.768 217.988 333.768C218.138 333.768 218.278 333.749 218.408 333.712C218.539 333.675 218.632 333.637 218.688 333.6L218.772 333.544L219.276 334.076C219.202 334.169 219.099 334.281 218.968 334.412C218.838 334.524 218.53 334.692 218.044 334.916C217.559 335.121 217.027 335.224 216.448 335.224C215.086 335.224 214.302 334.664 214.096 333.544C212.715 334.664 211.128 335.224 209.336 335.224C208.104 335.224 207.162 334.925 206.508 334.328C205.874 333.712 205.556 332.853 205.556 331.752C205.556 330.688 205.93 329.876 206.676 329.316C207.442 328.737 208.851 328.317 210.904 328.056L214.04 327.664V324.864C214.04 323.333 213.238 322.568 211.632 322.568C210.755 322.568 210.064 322.792 209.56 323.24C209.056 323.688 208.804 324.304 208.804 325.088C208.804 325.312 208.823 325.527 208.86 325.732C208.898 325.937 208.935 326.096 208.972 326.208L209 326.348L208.748 326.628C208.3 326.628 207.88 326.609 207.488 326.572C207.096 326.516 206.816 326.469 206.648 326.432L206.396 326.348C206.228 326.031 206.144 325.62 206.144 325.116C206.144 323.996 206.62 323.109 207.572 322.456C208.543 321.803 209.924 321.476 211.716 321.476ZM208.58 331.388C208.58 332.825 209.355 333.544 210.904 333.544C211.446 333.544 211.978 333.451 212.5 333.264C213.023 333.077 213.415 332.891 213.676 332.704L214.04 332.452V328.812L211.24 329.176C210.27 329.288 209.579 329.521 209.168 329.876C208.776 330.212 208.58 330.716 208.58 331.388ZM221.083 335V334.664C222.166 333.544 223.444 331.855 224.919 329.596L225.115 329.26C224.032 329.055 223.174 328.625 222.539 327.972C221.904 327.3 221.587 326.488 221.587 325.536C221.587 324.397 222.054 323.473 222.987 322.764C223.92 322.055 225.143 321.7 226.655 321.7H232.871V335H229.931V329.4H227.719L223.967 335.196C223.202 335.065 222.24 335 221.083 335ZM227.187 328.056H229.931V323.072H227.187C226.384 323.072 225.74 323.296 225.255 323.744C224.77 324.173 224.527 324.771 224.527 325.536C224.527 326.339 224.77 326.964 225.255 327.412C225.74 327.841 226.384 328.056 227.187 328.056ZM116.436 363V354.6C116.436 353.648 116.399 352.789 116.324 352.024C116.268 351.24 116.203 350.699 116.128 350.4L116.016 349.98L116.268 349.7H119.376V355.44L120.748 355.3L121.448 354.488C122.232 353.573 122.895 352.743 123.436 351.996C123.977 351.231 124.323 350.699 124.472 350.4L124.696 349.924L124.976 349.7H127.412L122.904 355.132L124.36 357.596C125.032 358.567 125.695 359.481 126.348 360.34C127.02 361.18 127.515 361.777 127.832 362.132L128.336 362.664V363C127.795 363 127.263 363.019 126.74 363.056C126.236 363.093 125.872 363.131 125.648 363.168L125.284 363.196L120.524 356.532H119.376V363H116.436ZM136.712 349.476C140.222 349.476 141.976 350.783 141.976 353.396V360.536C141.976 361.357 142.312 361.768 142.984 361.768C143.134 361.768 143.274 361.749 143.404 361.712C143.535 361.675 143.628 361.637 143.684 361.6L143.768 361.544L144.272 362.076C144.198 362.169 144.095 362.281 143.964 362.412C143.834 362.524 143.526 362.692 143.04 362.916C142.555 363.121 142.023 363.224 141.444 363.224C140.082 363.224 139.298 362.664 139.092 361.544C137.711 362.664 136.124 363.224 134.332 363.224C133.1 363.224 132.158 362.925 131.504 362.328C130.87 361.712 130.552 360.853 130.552 359.752C130.552 358.688 130.926 357.876 131.672 357.316C132.438 356.737 133.847 356.317 135.9 356.056L139.036 355.664V352.864C139.036 351.333 138.234 350.568 136.628 350.568C135.751 350.568 135.06 350.792 134.556 351.24C134.052 351.688 133.8 352.304 133.8 353.088C133.8 353.312 133.819 353.527 133.856 353.732C133.894 353.937 133.931 354.096 133.968 354.208L133.996 354.348L133.744 354.628C133.296 354.628 132.876 354.609 132.484 354.572C132.092 354.516 131.812 354.469 131.644 354.432L131.392 354.348C131.224 354.031 131.14 353.62 131.14 353.116C131.14 351.996 131.616 351.109 132.568 350.456C133.539 349.803 134.92 349.476 136.712 349.476ZM133.576 359.388C133.576 360.825 134.351 361.544 135.9 361.544C136.442 361.544 136.974 361.451 137.496 361.264C138.019 361.077 138.411 360.891 138.672 360.704L139.036 360.452V356.812L136.236 357.176C135.266 357.288 134.575 357.521 134.164 357.876C133.772 358.212 133.576 358.716 133.576 359.388ZM156.439 363V351.072H150.083V363H147.143V354.6C147.143 353.648 147.106 352.789 147.031 352.024C146.975 351.24 146.91 350.699 146.835 350.4L146.723 349.98L146.975 349.7H159.351V363H156.439ZM176.246 349.7L169.442 365.1C169.069 365.977 168.714 366.817 168.378 367.62C168.061 368.423 167.837 369.011 167.706 369.384L167.51 369.944L167.314 370.14C166.866 370.14 166.428 370.075 165.998 369.944C165.569 369.832 165.252 369.711 165.046 369.58L164.738 369.384V369.104C164.888 368.973 165.074 368.777 165.298 368.516C165.541 368.273 165.952 367.732 166.53 366.892C167.128 366.071 167.622 365.221 168.014 364.344L168.63 363L164.85 354.6C164.44 353.667 164.02 352.808 163.59 352.024C163.18 351.24 162.862 350.689 162.638 350.372L162.33 349.896L162.526 349.7C163.068 349.7 163.6 349.691 164.122 349.672C164.645 349.635 165.028 349.597 165.27 349.56L165.634 349.532L170.058 359.892L172.466 354.6C172.914 353.629 173.278 352.752 173.558 351.968C173.838 351.184 174.006 350.643 174.062 350.344L174.146 349.896L174.314 349.7C174.576 349.7 174.846 349.691 175.126 349.672C175.425 349.635 175.649 349.597 175.798 349.56L176.05 349.504L176.246 349.7ZM190.031 360.2L190.562 360.732C190.525 360.807 190.46 360.9 190.367 361.012C190.292 361.124 190.087 361.32 189.751 361.6C189.433 361.88 189.079 362.132 188.687 362.356C188.313 362.58 187.791 362.785 187.119 362.972C186.447 363.14 185.728 363.224 184.963 363.224C182.835 363.224 181.127 362.599 179.839 361.348C178.569 360.079 177.935 358.408 177.935 356.336C177.935 354.264 178.569 352.603 179.839 351.352C181.127 350.101 182.909 349.476 185.187 349.476C186.829 349.476 188.117 349.803 189.051 350.456C189.984 351.109 190.451 352.005 190.451 353.144C190.451 353.368 190.432 353.592 190.395 353.816C190.357 354.021 190.32 354.171 190.283 354.264L190.199 354.432C189.676 354.619 188.911 354.712 187.903 354.712L187.651 354.432C187.781 354.04 187.847 353.583 187.847 353.06C187.847 352.239 187.604 351.623 187.119 351.212C186.652 350.783 185.989 350.568 185.131 350.568C183.88 350.568 182.909 351.063 182.219 352.052C181.528 353.023 181.183 354.32 181.183 355.944C181.183 357.829 181.584 359.248 182.387 360.2C183.208 361.152 184.384 361.628 185.915 361.628C186.699 361.628 187.436 361.516 188.127 361.292C188.817 361.049 189.312 360.807 189.611 360.564L190.031 360.2ZM205.458 351.324L205.178 351.604C204.356 351.193 202.966 350.988 201.006 350.988H200.334V363H197.422V350.988H196.778C195.9 350.988 195.116 351.044 194.426 351.156C193.735 351.249 193.259 351.352 192.998 351.464L192.606 351.604L192.354 351.324V349.7H205.458V351.324ZM213.74 349.476C217.249 349.476 219.004 350.783 219.004 353.396V360.536C219.004 361.357 219.34 361.768 220.012 361.768C220.161 361.768 220.301 361.749 220.432 361.712C220.562 361.675 220.656 361.637 220.712 361.6L220.796 361.544L221.3 362.076C221.225 362.169 221.122 362.281 220.992 362.412C220.861 362.524 220.553 362.692 220.068 362.916C219.582 363.121 219.05 363.224 218.472 363.224C217.109 363.224 216.325 362.664 216.12 361.544C214.738 362.664 213.152 363.224 211.36 363.224C210.128 363.224 209.185 362.925 208.532 362.328C207.897 361.712 207.58 360.853 207.58 359.752C207.58 358.688 207.953 357.876 208.7 357.316C209.465 356.737 210.874 356.317 212.928 356.056L216.064 355.664V352.864C216.064 351.333 215.261 350.568 213.656 350.568C212.778 350.568 212.088 350.792 211.584 351.24C211.08 351.688 210.828 352.304 210.828 353.088C210.828 353.312 210.846 353.527 210.884 353.732C210.921 353.937 210.958 354.096 210.996 354.208L211.024 354.348L210.772 354.628C210.324 354.628 209.904 354.609 209.512 354.572C209.12 354.516 208.84 354.469 208.672 354.432L208.42 354.348C208.252 354.031 208.168 353.62 208.168 353.116C208.168 351.996 208.644 351.109 209.596 350.456C210.566 349.803 211.948 349.476 213.74 349.476ZM210.604 359.388C210.604 360.825 211.378 361.544 212.928 361.544C213.469 361.544 214.001 361.451 214.524 361.264C215.046 361.077 215.438 360.891 215.7 360.704L216.064 360.452V356.812L213.264 357.176C212.293 357.288 211.602 357.521 211.192 357.876C210.8 358.212 210.604 358.716 210.604 359.388Z" fill="#0A3F76"/>
<path d="M254.257 85.5441C243.308 96.5543 233.283 107.784 222.062 118.536C216.544 123.834 210.72 128.716 204.281 132.812C193.722 139.531 182.182 144.321 170.412 148.566C163.058 151.215 155.288 152.179 147.675 153.756C142.486 154.835 137.307 155.897 132.478 158.225C124.683 161.989 117.526 166.591 111.724 173.038C106.841 178.461 102.768 184.465 98.7551 190.51C97.407 192.54 96.2452 194.688 95 196.783L95.2892 197.024C97.657 195.097 100.25 193.529 102.888 192.034C109.261 188.422 116.028 185.681 122.837 182.955C135.979 177.696 149.977 174.8 164.161 174.406C168.931 174.257 173.698 173.999 178.407 173.11C185.944 171.69 193.32 169.638 200.678 167.538C207.181 165.681 213.573 163.552 219.618 160.46C224.246 158.095 254.993 140.21 254.993 140.21V84.8217C254.836 84.9686 254.397 85.4044 254.257 85.5441Z" fill="#0A3F76"/>
<path d="M215.588 75.8223C210.563 78.729 205.539 81.6694 200.698 84.8578C191.78 90.7169 182.738 96.3833 174.387 103.054C168.696 107.605 163.945 112.786 160.661 119.271C157.83 124.87 154.746 130.348 151.969 135.967C149.925 140.106 148.02 144.321 146.371 148.639C146.101 149.344 146.138 149.628 146.974 149.472C147.378 149.414 147.783 149.366 148.185 149.296C153.969 148.28 159.636 146.731 165.377 145.52C178.944 142.659 190.918 136.622 201.6 128.034C210.735 120.692 217.669 111.418 224.339 102.026C228.697 95.8824 232.962 89.6669 237.46 83.6176C242.225 77.2094 247.085 70.8253 253 65.3877C255.061 63.4948 254.988 59.543 254.988 59.543V41C253.529 41.2801 252.087 41.6403 250.669 42.0789C247.144 42.9265 245.767 43.3456 243.262 43.9091C241.661 44.2679 240.769 45.1854 240.075 46.5195C238.085 50.2907 235.947 53.9849 233.702 57.614C229.082 65.0529 223.331 71.3359 215.588 75.8223Z" fill="#0A3F76"/>
<path d="M214.461 174.666C207.181 178.199 199.712 181.368 192.695 185.404C182.812 191.085 175.596 199.025 171.551 209.657C168.433 217.845 166.808 226.403 165.051 234.926C163.614 241.89 162.132 248.836 158.609 255.155C156.987 258.066 155.337 260.963 153.707 263.868L153.854 264C154.035 263.851 154.222 263.704 154.398 263.55C158.223 260.171 161.819 256.551 165.164 252.713C172.939 243.824 179.76 234.213 186.957 224.886C193.452 216.458 201.404 209.799 211.338 205.517C218.282 202.524 225.258 199.6 232.288 196.805C239.166 194.069 255 188.135 255 188.135V155.141C254.713 155.271 251.36 156.911 251.181 156.997C238.933 162.883 226.677 168.74 214.461 174.666Z" fill="#0A3F76"/>
<path d="M107.381 111.126C108.766 109.549 110.114 107.935 111.584 106.438C117.247 100.677 123.98 96.4364 131.407 93.2263C135.057 91.6201 138.912 90.5063 142.866 89.9151C148.489 89.1083 154.18 89.2336 159.828 88.7423C164.58 88.3257 169.331 87.885 174.007 86.9434C179.802 85.7867 185.48 84.1257 190.974 81.9801C195.844 80.0728 200.813 78.3847 205.031 75.112C214.532 67.7381 222.616 59.2373 227.77 48.321C227.932 47.9814 228.376 47.6154 228.077 47.2541C227.778 46.8929 227.388 47.2927 227.06 47.389C218.076 49.9802 209.272 49.7105 200.703 45.7851C199.999 45.4624 199.722 45.7851 199.318 46.2668C196.256 50.1391 193.009 53.8959 189.023 56.8363C176.662 65.9464 163.021 72.5641 148.035 76.3739C142.465 77.7967 137.153 80.06 132.289 83.0831C127.333 86.1439 123.22 90.1246 119.207 94.2474C113.599 100.027 109.011 106.529 104.608 113.624C105.621 112.891 106.55 112.054 107.381 111.126Z" fill="#0A3F76"/>
<path d="M164.039 179.557C163.47 179.297 163.075 179.478 162.686 179.521C159.928 179.832 157.175 180.183 154.415 180.467C149.513 180.971 144.611 181.688 139.733 182.394C138.812 182.529 138.294 182.876 137.939 183.815C136.858 186.668 135.706 189.503 134.429 192.277C129.661 202.632 127.272 213.469 127.632 224.853C127.823 230.796 127.59 236.73 126.612 242.606C125.919 246.791 125.058 250.95 124.271 255.128C124.308 255.152 124.345 255.176 124.379 255.203C124.49 254.993 124.612 254.789 124.708 254.574C127.026 249.355 129.74 244.315 132.828 239.497C137.635 231.909 141.103 223.803 142.839 214.981C143.618 211.015 144.461 207.003 146.403 203.393C150.494 195.776 155.438 188.723 161.418 182.399C162.286 181.472 163.137 180.535 164.039 179.557Z" fill="#0A3F76"/>
</g>
<defs>
<clipPath id="clip0_618_2">
<rect width="350" height="400" fill="white"/>
</clipPath>
</defs>
</svg>
