{
    "asset" : {
        "generator" : "Khronos glTF Blender I/O v3.2.43",
        "version" : "2.0"
    },
    "scene" : 0,
    "scenes" : [
        {
            "name" : "Scene",
            "nodes" : [
                0,
                1,
                2,
                3,
                4,
                5,
                6,
                7,
                8,
                9,
                10
            ]
        }
    ],
    "nodes" : [
        {
            "mesh" : 0,
            "name" : "v",
            "rotation" : [
                0.7071068286895752,
                0,
                0,
                0.7071067094802856
            ]
        },
        {
            "mesh" : 1,
            "name" : "c",
            "rotation" : [
                0.7071068286895752,
                0,
                0,
                0.7071067094802856
            ]
        },
        {
            "mesh" : 2,
            "name" : "Long",
            "rotation" : [
                0.7071068286895752,
                0,
                0,
                0.7071067094802856
            ]
        },
        {
            "mesh" : 3,
            "name" : "short",
            "rotation" : [
                0.7071068286895752,
                0,
                0,
                0.7071067094802856
            ]
        },
        {
            "mesh" : 4,
            "name" : "tshirt_f",
            "rotation" : [
                0.7071068286895752,
                0,
                0,
                0.7071067094802856
            ]
        },
        {
            "mesh" : 5,
            "name" : "d_s",
            "rotation" : [
                0.7071068286895752,
                0,
                0,
                0.7071067094802856
            ]
        },
        {
            "mesh" : 6,
            "name" : "d_f",
            "rotation" : [
                0.7071068286895752,
                0,
                0,
                0.7071067094802856
            ]
        },
        {
            "mesh" : 7,
            "name" : "shoulders_0",
            "rotation" : [
                0.7071068286895752,
                0,
                0,
                0.7071067094802856
            ]
        },
        {
            "mesh" : 8,
            "name" : "tshirt_s",
            "rotation" : [
                0.7071068286895752,
                0,
                0,
                0.7071067094802856
            ]
        },
        {
            "mesh" : 9,
            "name" : "shoulders_1",
            "rotation" : [
                0.7071068286895752,
                0,
                0,
                0.7071067094802856
            ]
        },
        {
            "mesh" : 10,
            "name" : "Print",
            "rotation" : [
                0.7071068286895752,
                0,
                0,
                0.7071067094802856
            ],
            "translation" : [
                0.013238365761935711,
                0,
                0
            ]
        }
    ],
    "materials" : [
        {
            "doubleSided" : true,
            "name" : "Ceckker2.004",
            "normalTexture" : {
                "index" : 0
            },
            "pbrMetallicRoughness" : {
                "baseColorTexture" : {
                    "index" : 1
                },
                "metallicFactor" : 0,
                "roughnessFactor" : 0.494035542011261
            }
        },
        {
            "doubleSided" : true,
            "name" : "Ceckker2.003",
            "normalTexture" : {
                "index" : 2
            },
            "pbrMetallicRoughness" : {
                "baseColorTexture" : {
                    "index" : 3
                },
                "metallicFactor" : 0,
                "roughnessFactor" : 0.494035542011261
            }
        },
        {
            "alphaMode" : "BLEND",
            "doubleSided" : true,
            "name" : "Material.001",
            "normalTexture" : {
                "index" : 4
            },
            "pbrMetallicRoughness" : {
                "baseColorTexture" : {
                    "index" : 5
                },
                "metallicFactor" : 0,
                "roughnessFactor" : 0.5
            }
        }
    ],
    "meshes" : [
        {
            "name" : "v",
            "primitives" : [
                {
                    "attributes" : {
                        "POSITION" : 0,
                        "NORMAL" : 1,
                        "TEXCOORD_0" : 2
                    },
                    "indices" : 3,
                    "material" : 0
                }
            ]
        },
        {
            "name" : "c",
            "primitives" : [
                {
                    "attributes" : {
                        "POSITION" : 4,
                        "NORMAL" : 5,
                        "TEXCOORD_0" : 6
                    },
                    "indices" : 7,
                    "material" : 0
                }
            ]
        },
        {
            "name" : "Long",
            "primitives" : [
                {
                    "attributes" : {
                        "POSITION" : 8,
                        "NORMAL" : 9,
                        "TEXCOORD_0" : 10
                    },
                    "indices" : 11,
                    "material" : 0
                }
            ]
        },
        {
            "name" : "short",
            "primitives" : [
                {
                    "attributes" : {
                        "POSITION" : 12,
                        "NORMAL" : 13,
                        "TEXCOORD_0" : 14
                    },
                    "indices" : 15,
                    "material" : 1
                }
            ]
        },
        {
            "name" : "Mesh.002",
            "primitives" : [
                {
                    "attributes" : {
                        "POSITION" : 16,
                        "NORMAL" : 17,
                        "TEXCOORD_0" : 18
                    },
                    "indices" : 19,
                    "material" : 0
                }
            ]
        },
        {
            "name" : "Mesh.003",
            "primitives" : [
                {
                    "attributes" : {
                        "POSITION" : 20,
                        "NORMAL" : 21,
                        "TEXCOORD_0" : 22
                    },
                    "indices" : 23,
                    "material" : 0
                }
            ]
        },
        {
            "name" : "Mesh.004",
            "primitives" : [
                {
                    "attributes" : {
                        "POSITION" : 24,
                        "NORMAL" : 25,
                        "TEXCOORD_0" : 26
                    },
                    "indices" : 27,
                    "material" : 0
                }
            ]
        },
        {
            "name" : "Mesh.005",
            "primitives" : [
                {
                    "attributes" : {
                        "POSITION" : 28,
                        "NORMAL" : 29,
                        "TEXCOORD_0" : 30
                    },
                    "indices" : 31,
                    "material" : 0
                }
            ]
        },
        {
            "name" : "Mesh.006",
            "primitives" : [
                {
                    "attributes" : {
                        "POSITION" : 32,
                        "NORMAL" : 33,
                        "TEXCOORD_0" : 34
                    },
                    "indices" : 35,
                    "material" : 0
                }
            ]
        },
        {
            "name" : "Mesh.007",
            "primitives" : [
                {
                    "attributes" : {
                        "POSITION" : 36,
                        "NORMAL" : 37,
                        "TEXCOORD_0" : 38
                    },
                    "indices" : 31,
                    "material" : 0
                }
            ]
        },
        {
            "name" : "Mesh.008",
            "primitives" : [
                {
                    "attributes" : {
                        "POSITION" : 39,
                        "NORMAL" : 40,
                        "TEXCOORD_0" : 41
                    },
                    "indices" : 42,
                    "material" : 2
                }
            ]
        }
    ],
    "textures" : [
        {
            "sampler" : 0,
            "source" : 0
        },
        {
            "sampler" : 0,
            "source" : 1
        },
        {
            "sampler" : 0,
            "source" : 2
        },
        {
            "sampler" : 0,
            "source" : 1
        },
        {
            "sampler" : 0,
            "source" : 3
        },
        {
            "sampler" : 0,
            "source" : 4
        }
    ],
    "images" : [
        {
            "mimeType" : "image/png",
            "name" : "Normal_longSleeve",
            "uri" : "Normal_longSleeve.png"
        },
        {
            "mimeType" : "image/png",
            "name" : "Color_Stripe",
            "uri" : "Color_Stripe.png"
        },
        {
            "mimeType" : "image/png",
            "name" : "Normalr_ShortSleeve",
            "uri" : "Normalr_ShortSleeve.png"
        },
        {
            "mimeType" : "image/png",
            "name" : "tiger_normal",
            "uri" : "tiger_normal.png"
        },
        {
            "mimeType" : "image/png",
            "name" : "app_red-tiger_alpha",
            "uri" : "app_red-tiger_alpha.png"
        }
    ],
    "accessors" : [
        {
            "bufferView" : 0,
            "componentType" : 5126,
            "count" : 288,
            "max" : [
                0.45406800508499146,
                0.42331600189208984,
                -2.103260040283203
            ],
            "min" : [
                -0.3663409948348999,
                -0.42331600189208984,
                -2.78125
            ],
            "type" : "VEC3"
        },
        {
            "bufferView" : 1,
            "componentType" : 5126,
            "count" : 288,
            "type" : "VEC3"
        },
        {
            "bufferView" : 2,
            "componentType" : 5126,
            "count" : 288,
            "type" : "VEC2"
        },
        {
            "bufferView" : 3,
            "componentType" : 5123,
            "count" : 432,
            "type" : "SCALAR"
        },
        {
            "bufferView" : 4,
            "componentType" : 5126,
            "count" : 544,
            "max" : [
                0.4540649950504303,
                0.42331600189208984,
                -2.103260040283203
            ],
            "min" : [
                -0.3663409948348999,
                -0.42331600189208984,
                -2.78125
            ],
            "type" : "VEC3"
        },
        {
            "bufferView" : 5,
            "componentType" : 5126,
            "count" : 544,
            "type" : "VEC3"
        },
        {
            "bufferView" : 6,
            "componentType" : 5126,
            "count" : 544,
            "type" : "VEC2"
        },
        {
            "bufferView" : 7,
            "componentType" : 5123,
            "count" : 816,
            "type" : "SCALAR"
        },
        {
            "bufferView" : 8,
            "componentType" : 5126,
            "count" : 1920,
            "max" : [
                0.35170599818229675,
                1.4678499698638916,
                0.5056099891662598
            ],
            "min" : [
                -0.2715870141983032,
                -1.4678499698638916,
                -2.3326900005340576
            ],
            "type" : "VEC3"
        },
        {
            "bufferView" : 9,
            "componentType" : 5126,
            "count" : 1920,
            "type" : "VEC3"
        },
        {
            "bufferView" : 10,
            "componentType" : 5126,
            "count" : 1920,
            "type" : "VEC2"
        },
        {
            "bufferView" : 11,
            "componentType" : 5123,
            "count" : 2880,
            "type" : "SCALAR"
        },
        {
            "bufferView" : 12,
            "componentType" : 5126,
            "count" : 768,
            "max" : [
                0.35170599818229675,
                1.560130000114441,
                -1.2395000457763672
            ],
            "min" : [
                -0.2715870141983032,
                -1.560130000114441,
                -2.3326900005340576
            ],
            "type" : "VEC3"
        },
        {
            "bufferView" : 13,
            "componentType" : 5126,
            "count" : 768,
            "type" : "VEC3"
        },
        {
            "bufferView" : 14,
            "componentType" : 5126,
            "count" : 768,
            "type" : "VEC2"
        },
        {
            "bufferView" : 15,
            "componentType" : 5123,
            "count" : 1152,
            "type" : "SCALAR"
        },
        {
            "bufferView" : 16,
            "componentType" : 5126,
            "count" : 1552,
            "max" : [
                0.4540649950504303,
                0.8791132569313049,
                -0.019999997690320015
            ],
            "min" : [
                -0.3705730140209198,
                -0.8791132569313049,
                -2.5481200218200684
            ],
            "type" : "VEC3"
        },
        {
            "bufferView" : 17,
            "componentType" : 5126,
            "count" : 1552,
            "type" : "VEC3"
        },
        {
            "bufferView" : 18,
            "componentType" : 5126,
            "count" : 1552,
            "type" : "VEC2"
        },
        {
            "bufferView" : 19,
            "componentType" : 5123,
            "count" : 2328,
            "type" : "SCALAR"
        },
        {
            "bufferView" : 20,
            "componentType" : 5126,
            "count" : 208,
            "max" : [
                0.4540500044822693,
                0.8774610161781311,
                0.46000000834465027
            ],
            "min" : [
                -0.3705730140209198,
                -0.8774610161781311,
                -0.019999999552965164
            ],
            "type" : "VEC3"
        },
        {
            "bufferView" : 21,
            "componentType" : 5126,
            "count" : 208,
            "type" : "VEC3"
        },
        {
            "bufferView" : 22,
            "componentType" : 5126,
            "count" : 208,
            "type" : "VEC2"
        },
        {
            "bufferView" : 23,
            "componentType" : 5123,
            "count" : 312,
            "type" : "SCALAR"
        },
        {
            "bufferView" : 24,
            "componentType" : 5126,
            "count" : 208,
            "max" : [
                0.4540500044822693,
                0.8774610161781311,
                0.490329772233963
            ],
            "min" : [
                -0.3705730140209198,
                -0.8774610161781311,
                -0.019999999552965164
            ],
            "type" : "VEC3"
        },
        {
            "bufferView" : 25,
            "componentType" : 5126,
            "count" : 208,
            "type" : "VEC3"
        },
        {
            "bufferView" : 26,
            "componentType" : 5126,
            "count" : 208,
            "type" : "VEC2"
        },
        {
            "bufferView" : 27,
            "componentType" : 5123,
            "count" : 312,
            "type" : "SCALAR"
        },
        {
            "bufferView" : 28,
            "componentType" : 5126,
            "count" : 816,
            "max" : [
                0.43873700499534607,
                1.1031800508499146,
                -1.643180012702942
            ],
            "min" : [
                -0.353285014629364,
                -1.1031800508499146,
                -2.723330020904541
            ],
            "type" : "VEC3"
        },
        {
            "bufferView" : 29,
            "componentType" : 5126,
            "count" : 816,
            "type" : "VEC3"
        },
        {
            "bufferView" : 30,
            "componentType" : 5126,
            "count" : 816,
            "type" : "VEC2"
        },
        {
            "bufferView" : 31,
            "componentType" : 5123,
            "count" : 1224,
            "type" : "SCALAR"
        },
        {
            "bufferView" : 32,
            "componentType" : 5126,
            "count" : 1550,
            "max" : [
                0.4540649950504303,
                0.8822190165519714,
                -0.019999999552965164
            ],
            "min" : [
                -0.3705730140209198,
                -0.8822190165519714,
                -2.5481200218200684
            ],
            "type" : "VEC3"
        },
        {
            "bufferView" : 33,
            "componentType" : 5126,
            "count" : 1550,
            "type" : "VEC3"
        },
        {
            "bufferView" : 34,
            "componentType" : 5126,
            "count" : 1550,
            "type" : "VEC2"
        },
        {
            "bufferView" : 35,
            "componentType" : 5123,
            "count" : 2328,
            "type" : "SCALAR"
        },
        {
            "bufferView" : 36,
            "componentType" : 5126,
            "count" : 816,
            "max" : [
                0.43873700499534607,
                1.1031800508499146,
                -1.643180012702942
            ],
            "min" : [
                -0.353285014629364,
                -1.1031800508499146,
                -2.723330020904541
            ],
            "type" : "VEC3"
        },
        {
            "bufferView" : 37,
            "componentType" : 5126,
            "count" : 816,
            "type" : "VEC3"
        },
        {
            "bufferView" : 38,
            "componentType" : 5126,
            "count" : 816,
            "type" : "VEC2"
        },
        {
            "bufferView" : 39,
            "componentType" : 5126,
            "count" : 364,
            "max" : [
                0.4540649950504303,
                0.002210171427577734,
                -1.3283580541610718
            ],
            "min" : [
                0.03981250151991844,
                -1.1031800508499146,
                -2.7221601009368896
            ],
            "type" : "VEC3"
        },
        {
            "bufferView" : 40,
            "componentType" : 5126,
            "count" : 364,
            "type" : "VEC3"
        },
        {
            "bufferView" : 41,
            "componentType" : 5126,
            "count" : 364,
            "type" : "VEC2"
        },
        {
            "bufferView" : 42,
            "componentType" : 5123,
            "count" : 546,
            "type" : "SCALAR"
        }
    ],
    "bufferViews" : [
        {
            "buffer" : 0,
            "byteLength" : 3456,
            "byteOffset" : 0
        },
        {
            "buffer" : 0,
            "byteLength" : 3456,
            "byteOffset" : 3456
        },
        {
            "buffer" : 0,
            "byteLength" : 2304,
            "byteOffset" : 6912
        },
        {
            "buffer" : 0,
            "byteLength" : 864,
            "byteOffset" : 9216
        },
        {
            "buffer" : 0,
            "byteLength" : 6528,
            "byteOffset" : 10080
        },
        {
            "buffer" : 0,
            "byteLength" : 6528,
            "byteOffset" : 16608
        },
        {
            "buffer" : 0,
            "byteLength" : 4352,
            "byteOffset" : 23136
        },
        {
            "buffer" : 0,
            "byteLength" : 1632,
            "byteOffset" : 27488
        },
        {
            "buffer" : 0,
            "byteLength" : 23040,
            "byteOffset" : 29120
        },
        {
            "buffer" : 0,
            "byteLength" : 23040,
            "byteOffset" : 52160
        },
        {
            "buffer" : 0,
            "byteLength" : 15360,
            "byteOffset" : 75200
        },
        {
            "buffer" : 0,
            "byteLength" : 5760,
            "byteOffset" : 90560
        },
        {
            "buffer" : 0,
            "byteLength" : 9216,
            "byteOffset" : 96320
        },
        {
            "buffer" : 0,
            "byteLength" : 9216,
            "byteOffset" : 105536
        },
        {
            "buffer" : 0,
            "byteLength" : 6144,
            "byteOffset" : 114752
        },
        {
            "buffer" : 0,
            "byteLength" : 2304,
            "byteOffset" : 120896
        },
        {
            "buffer" : 0,
            "byteLength" : 18624,
            "byteOffset" : 123200
        },
        {
            "buffer" : 0,
            "byteLength" : 18624,
            "byteOffset" : 141824
        },
        {
            "buffer" : 0,
            "byteLength" : 12416,
            "byteOffset" : 160448
        },
        {
            "buffer" : 0,
            "byteLength" : 4656,
            "byteOffset" : 172864
        },
        {
            "buffer" : 0,
            "byteLength" : 2496,
            "byteOffset" : 177520
        },
        {
            "buffer" : 0,
            "byteLength" : 2496,
            "byteOffset" : 180016
        },
        {
            "buffer" : 0,
            "byteLength" : 1664,
            "byteOffset" : 182512
        },
        {
            "buffer" : 0,
            "byteLength" : 624,
            "byteOffset" : 184176
        },
        {
            "buffer" : 0,
            "byteLength" : 2496,
            "byteOffset" : 184800
        },
        {
            "buffer" : 0,
            "byteLength" : 2496,
            "byteOffset" : 187296
        },
        {
            "buffer" : 0,
            "byteLength" : 1664,
            "byteOffset" : 189792
        },
        {
            "buffer" : 0,
            "byteLength" : 624,
            "byteOffset" : 191456
        },
        {
            "buffer" : 0,
            "byteLength" : 9792,
            "byteOffset" : 192080
        },
        {
            "buffer" : 0,
            "byteLength" : 9792,
            "byteOffset" : 201872
        },
        {
            "buffer" : 0,
            "byteLength" : 6528,
            "byteOffset" : 211664
        },
        {
            "buffer" : 0,
            "byteLength" : 2448,
            "byteOffset" : 218192
        },
        {
            "buffer" : 0,
            "byteLength" : 18600,
            "byteOffset" : 220640
        },
        {
            "buffer" : 0,
            "byteLength" : 18600,
            "byteOffset" : 239240
        },
        {
            "buffer" : 0,
            "byteLength" : 12400,
            "byteOffset" : 257840
        },
        {
            "buffer" : 0,
            "byteLength" : 4656,
            "byteOffset" : 270240
        },
        {
            "buffer" : 0,
            "byteLength" : 9792,
            "byteOffset" : 274896
        },
        {
            "buffer" : 0,
            "byteLength" : 9792,
            "byteOffset" : 284688
        },
        {
            "buffer" : 0,
            "byteLength" : 6528,
            "byteOffset" : 294480
        },
        {
            "buffer" : 0,
            "byteLength" : 4368,
            "byteOffset" : 301008
        },
        {
            "buffer" : 0,
            "byteLength" : 4368,
            "byteOffset" : 305376
        },
        {
            "buffer" : 0,
            "byteLength" : 2912,
            "byteOffset" : 309744
        },
        {
            "buffer" : 0,
            "byteLength" : 1092,
            "byteOffset" : 312656
        }
    ],
    "samplers" : [
        {
            "magFilter" : 9729,
            "minFilter" : 9987
        }
    ],
    "buffers" : [
        {
            "byteLength" : 313748,
            "uri" : "telnajka.bin"
        }
    ]
}
